<?xml version="1.0" encoding="UTF-8"?><svg xmlns="http://www.w3.org/2000/svg" xmlns:xlink="http://www.w3.org/1999/xlink" height="81.7" preserveAspectRatio="xMidYMid meet" version="1.1" viewBox="0.0 -0.2 468.9 81.7" width="468.9" zoomAndPan="magnify">
 <defs>
  <clipPath id="clip1">
   <path d="m0 34h468.92v47.539h-468.92z"/>
  </clipPath>
  <clipPath id="clip2">
   <path d="m0 34h468.92v47h-468.92z"/>
  </clipPath>
 </defs>
 <g id="surface1">
  <g clip-path="url(#clip1)" id="change1_1">
   <path d="m232.04 74.777c-0.1 0.328-0.16 0.641-0.2 0.942-0.2-0.231-0.42-0.457-0.68-0.676-3.23-2.758-7.16-1.313-7.16-1.313s8.61 7.34 8.94 7.809l1.25-0.543c0.02-0.574 3.07-11.277 3.07-11.277s-4.06 0.972-5.22 5.058zm20.74-3.238c-0.28 0.203-0.52 0.414-0.73 0.629-0.02-0.305-0.06-0.621-0.13-0.953-0.87-4.16-4.85-5.418-4.85-5.418s2.31 11.066 2.28 11.644l1.32 0.336c0.37-0.445 9.34-7.035 9.34-7.035s-3.81-1.722-7.23 0.797zm78.34-17.769c7.52 0.039 12.66-3.426 16.54-7.235 2.21-2.168 7.84-10.183 8.6-11.476 0.06-0.102-0.14-0.278-0.29-0.254-4.33 0.586-8.73 1.097-12.51 2.398-0.31 0.106-0.62 0.219-0.92 0.336-4 1.563-7.29 3.848-9.87 6.625-1.43 1.535-2.65 3.086-3.21 5.137-0.24 0.898-1.32 4.457 1.66 4.469zm48.82 16.046c-4.11-5.683-11.11-6.261-18.23-5.726-2.83 0.211-1.36 3.508-1.02 4.344 0.78 1.906 2.13 3.293 3.68 4.652 2.79 2.457 6.2 4.406 10.18 5.617 0.31 0.094 0.61 0.18 0.92 0.258 3.75 0.98 7.98 1.172 12.17 1.441 0.15 0.008 0.31-0.168 0.24-0.261-0.88-1.176-5.2-6.543-7.94-10.325zm88.44-33.515c-4.8 0.242-9.66 0.394-13.97 1.469-0.36 0.085-0.71 0.179-1.05 0.281-4.58 1.336-8.49 3.523-11.7 6.312-1.77 1.539-3.33 3.117-4.22 5.301-1.08 2.641-1.46 4.586 2.41 5.106 4.69 0.632 10.53-0.672 14.17-3.043 3.5-2.274 5.32-5.68 8.06-8.442 2.16-2.18 4.78-4.297 6.57-6.68 0.08-0.109-0.1-0.312-0.27-0.304zm-37.66 17.656c-10.2 0.883-20.41 1.625-30.63 2.203-10.27 0.586-20.54 1.008-30.82 1.235-10.09 0.226-20.17 0.261-30.25 0.046-9.47-0.203-18.93-0.629-28.38-1.379-8.58-0.683-17.15-1.632-25.65-3.042-0.97-0.165-1.94-0.329-2.91-0.504-1.24-0.223-1.78 1.683-0.53 1.906 8.38 1.5 16.83 2.535 25.29 3.297 9.42 0.843 18.86 1.336 28.3 1.601 10.03 0.285 20.06 0.305 30.08 0.133 10.32-0.176 20.63-0.555 30.93-1.098s20.58-1.25 30.86-2.105c1.24-0.105 2.47-0.207 3.71-0.316 1.26-0.11 1.27-2.086 0-1.977zm-45.52-1.883c7.42 0.942 13.16-1.863 17.72-5.164 2.59-1.879 9.67-9.121 10.67-10.308 0.07-0.098-0.08-0.29-0.24-0.29-4.39 0.059-8.83 0.036-12.82 0.868-0.33 0.066-0.65 0.14-0.98 0.222-4.25 1.063-7.93 2.926-11.01 5.364-1.69 1.343-3.2 2.73-4.13 4.691-0.41 0.859-2.16 4.246 0.79 4.617zm-263.94-5.539c3.88 3.809 9.02 7.274 16.54 7.235 2.98-0.012 1.9-3.571 1.65-4.469-0.54-2.051-1.77-3.602-3.2-5.137-2.57-2.777-5.87-5.062-9.87-6.625-0.3-0.117-0.61-0.23-0.92-0.336-3.78-1.301-8.18-1.812-12.51-2.398-0.16-0.024-0.35 0.152-0.29 0.254 0.76 1.293 6.39 9.308 8.6 11.476zm-14.05 17.555c-7.12-0.535-14.12 0.043-18.23 5.726-2.734 3.782-7.054 9.149-7.937 10.325-0.07 0.093 0.094 0.269 0.238 0.261 4.188-0.269 8.418-0.461 12.172-1.441 0.309-0.078 0.613-0.164 0.914-0.258 3.988-1.211 7.393-3.16 10.183-5.617 1.54-1.359 2.9-2.746 3.68-4.652 0.34-0.836 1.81-4.133-1.02-4.344zm-79.948-19.727c-3.207-2.789-7.121-4.976-11.7-6.312-0.347-0.102-0.699-0.196-1.05-0.281-4.309-1.075-9.1682-1.227-13.973-1.469-0.16791-0.008-0.35541 0.195-0.27338 0.304 1.8008 2.383 4.418 4.5 6.5782 6.68 2.7343 2.762 4.5582 6.168 8.0582 8.442 3.645 2.371 9.481 3.675 14.168 3.043 3.868-0.52 3.496-2.465 2.414-5.106-0.894-2.184-2.453-3.762-4.222-5.301zm159.58 8.153c-8.36 1.496-16.79 2.519-25.23 3.265-9.35 0.828-18.72 1.309-28.09 1.571-10.03 0.277-20.06 0.293-30.09 0.117-10.27-0.176-20.535-0.555-30.793-1.098-10.254-0.543-20.496-1.25-30.727-2.101-1.238-0.102-2.472-0.208-3.707-0.313-1.269-0.109-1.262 1.867 0 1.977 10.199 0.882 20.406 1.625 30.629 2.207 10.356 0.586 20.723 1.011 31.094 1.238 10.074 0.223 20.164 0.254 30.234 0.031 9.5-0.207 19-0.637 28.48-1.398 8.64-0.7 17.26-1.668 25.82-3.086 0.97-0.16 1.93-0.328 2.9-0.504 1.26-0.223 0.73-2.129-0.52-1.906zm-131.5-15.914c-0.082-0.098 0.074-0.29 0.23-0.29 4.399 0.059 8.836 0.036 12.825 0.868 0.328 0.066 0.656 0.14 0.976 0.222 4.246 1.063 7.938 2.926 11.012 5.364 1.695 1.343 3.203 2.73 4.133 4.691 0.41 0.859 2.152 4.246-0.793 4.617-7.426 0.942-13.157-1.863-17.715-5.164-2.594-1.879-9.676-9.121-10.668-10.308" fill="#466f4f"/>
  </g>
  <g clip-path="url(#clip2)" id="change2_1">
   <path d="m355.71 34.352c-2.69 1.535-5.33 3.14-7.96 4.773-4.71 2.926-9.41 5.945-13.73 9.418-1.66 1.332-3.5 2.781-4.62 4.629-0.35 0.578 0.55 1.101 0.9 0.527 0.93-1.527 2.46-2.777 3.84-3.918 2.04-1.687 4.21-3.23 6.4-4.726 4.19-2.871 8.51-5.559 12.89-8.157 0.93-0.554 1.87-1.105 2.81-1.644 0.58-0.332 0.06-1.238-0.53-0.902zm31.76 45.312c-2.65-1.226-5.27-2.519-7.88-3.84-4.71-2.383-9.42-4.847-13.84-7.746-1.64-1.078-3.61-2.34-4.76-3.851-0.4-0.528-1.31-0.004-0.9 0.531 1.11 1.445 2.66 2.539 4.15 3.562 2.12 1.457 4.34 2.766 6.58 4.028 4.32 2.437 8.76 4.687 13.23 6.843 0.96 0.465 1.92 0.926 2.89 1.375 0.61 0.282 1.14-0.617 0.53-0.902zm80.65-43.816c-3.16 1.347-6.28 2.773-9.39 4.238-5.56 2.621-11.14 5.34-16.35 8.613-1.19 0.746-2.36 1.531-3.47 2.399-0.8 0.621-1.59 1.289-2.22 2.093-0.41 0.528 0.33 1.274 0.74 0.743 1.26-1.622 3.11-2.809 4.81-3.907 2.47-1.601 5.06-3.031 7.67-4.406 5.04-2.648 10.18-5.078 15.38-7.394 1.11-0.5 2.23-0.997 3.35-1.477 0.62-0.262 0.09-1.164-0.52-0.902zm-54.91-0.039c-2.96 1.203-5.89 2.476-8.81 3.781-5.2 2.32-10.4 4.726-15.31 7.617-1.9 1.121-4 2.324-5.45 4.012-0.44 0.508 0.3 1.254 0.74 0.742 1.22-1.422 2.93-2.453 4.51-3.418 2.34-1.422 4.77-2.688 7.21-3.906 4.71-2.348 9.51-4.5 14.36-6.551 1-0.43 2.02-0.856 3.03-1.27 0.62-0.25 0.35-1.261-0.28-1.007zm-277.62 13.293c-2.05-1.707-4.23-3.27-6.44-4.782-4.25-2.922-8.63-5.652-13.07-8.289-0.95-0.566-1.9-1.129-2.87-1.679-0.59-0.336-1.11 0.566-0.53 0.902 2.64 1.508 5.25 3.086 7.83 4.691 4.65 2.887 9.3 5.856 13.58 9.274 1.61 1.289 3.46 2.715 4.53 4.48 0.35 0.574 1.25 0.051 0.9-0.527-0.97-1.602-2.5-2.887-3.93-4.07zm-27.66 15.125c-0.99 1.296-2.65 2.425-4.06 3.382-2.11 1.434-4.323 2.727-6.55 3.977-4.269 2.394-8.636 4.609-13.039 6.734-0.941 0.453-1.883 0.907-2.832 1.344-0.609 0.285-0.078 1.184 0.528 0.902 2.699-1.25 5.371-2.566 8.023-3.91 4.75-2.406 9.504-4.894 13.95-7.844 1.73-1.148 3.6-2.382 4.88-4.054 0.41-0.535-0.5-1.059-0.9-0.531zm-80.555-14.997c-2.492-1.625-5.105-3.07-7.734-4.457-5.067-2.671-10.25-5.117-15.477-7.449-1.1171-0.5-2.2343-0.996-3.3632-1.476-0.60939-0.262-1.1446 0.64-0.52736 0.902 3.125 1.336 6.2188 2.746 9.2891 4.191 5.5395 2.606 11.086 5.313 16.286 8.555 1.976 1.234 4.191 2.566 5.644 4.438 0.41 0.531 1.149-0.215 0.738-0.743-1.269-1.632-3.144-2.843-4.855-3.961zm51.84-1.168c-4.883-2.871-10.055-5.261-15.223-7.57-2.836-1.269-5.687-2.508-8.566-3.676-0.617-0.25-0.344-1.261 0.281-1.007 1.074 0.437 2.148 0.89 3.219 1.343 4.863 2.063 9.691 4.223 14.418 6.578 2.476 1.235 4.933 2.52 7.293 3.961 1.625 0.997 3.386 2.067 4.648 3.528 0.438 0.508-0.301 1.254-0.742 0.742-1.422-1.652-3.473-2.813-5.328-3.899" fill="#71a674"/>
  </g>
  <g id="change3_1"><path d="m260.07 48.609c-0.06-0.14-0.18-0.25-0.32-0.3 0.05-0.141 0.05-0.301-0.02-0.438 0.15-0.062 0.25-0.176 0.31-0.32 0.14 0.054 0.29 0.054 0.43-0.012 0.07 0.137 0.18 0.246 0.32 0.297-0.06 0.144-0.05 0.301 0.01 0.437-0.14 0.063-0.24 0.176-0.29 0.321-0.15-0.055-0.3-0.051-0.44 0.015zm18.63-1.824c0.38-0.273 0.26-0.871-0.2-0.98-5.33-1.422-9.6-1.063-12.67-0.254 4.76-3.485 6.17-9.024 6.56-11.418 0.08-0.465-0.43-0.805-0.83-0.555-4.77 2.762-7.54 6.039-9.14 8.777 0.9-5.828-2.02-10.742-3.44-12.71-0.27-0.383-0.87-0.262-0.98 0.195-1.42 5.332-1.06 9.601-0.25 12.668-3.49-4.754-9.03-6.164-11.42-6.559-0.47-0.074-0.8 0.434-0.56 0.836 2.77 4.774 6.04 7.539 8.78 9.137-5.82-0.899-10.74 2.019-12.71 3.437-0.38 0.274-0.26 0.875 0.2 0.981 5.33 1.422 9.6 1.062 12.67 0.258-4.76 3.48-6.17 9.023-6.56 11.418-0.08 0.464 0.43 0.8 0.83 0.55 4.77-2.761 7.54-6.035 9.14-8.773-0.9 5.824 2.02 10.742 3.44 12.711 0.27 0.383 0.87 0.262 0.98-0.199 1.42-5.328 1.06-9.602 0.25-12.668 3.49 4.758 9.03 6.168 11.42 6.558 0.47 0.075 0.81-0.433 0.56-0.832-2.77-4.777-6.04-7.543-8.78-9.14 5.83 0.902 10.74-2.02 12.71-3.438zm-62.52 5.774c-0.07-0.184-0.23-0.329-0.41-0.391 0.06-0.184 0.06-0.379-0.02-0.551 0.18-0.082 0.32-0.234 0.39-0.422 0.18 0.067 0.38 0.063 0.55-0.015 0.08 0.179 0.23 0.324 0.42 0.39-0.07 0.18-0.06 0.375 0.01 0.551-0.18 0.078-0.32 0.231-0.39 0.418-0.18-0.066-0.37-0.062-0.55 0.02zm24.51-35.02c0.08 0.125 0.22 0.215 0.37 0.238-0.03 0.153 0 0.305 0.08 0.43-0.12 0.086-0.21 0.215-0.23 0.367-0.16-0.031-0.31 0-0.43 0.09-0.09-0.129-0.22-0.219-0.37-0.242 0.03-0.152 0-0.305-0.09-0.43 0.13-0.086 0.21-0.215 0.24-0.367 0.15 0.031 0.31 0 0.43-0.086zm-0.71 31.402c-6.89-1.836-12.4-1.371-16.36-0.332 5.93-4.339 7.83-11.136 8.4-14.386 4.17-3.512 6.32-7.176 7.42-10.121 0.1 5.894 3.82 10.238 5.55 11.941 0.34 0.328 0.9 0.105 0.93-0.363 0.5-5.496-0.58-9.641-1.9-12.528 4.24 4.094 9.94 4.539 12.37 4.516 0.47-0.004 0.71-0.563 0.4-0.914-3.54-4.234-7.24-6.402-10.2-7.512 5.89-0.101 10.23-3.82 11.93-5.551 0.34-0.336 0.11-0.906-0.36-0.933-5.49-0.492-9.64 0.59-12.52 1.906 4.09-4.242 4.54-9.9413 4.51-12.367 0-0.4728-0.56-0.7189-0.91-0.4025-4.24 3.5352-6.4 7.2344-7.51 10.204-0.11-5.8949-3.82-10.239-5.55-11.938-0.34-0.33188-0.91-0.10922-0.94 0.35953-0.49 5.4961 0.59 9.6445 1.91 12.527-4.24-4.0939-9.94-4.5392-12.37-4.5158-0.47 0.004-0.72 0.5626-0.4 0.9141 3.53 4.2347 7.23 6.4027 10.2 7.5117-5.89 0.105-10.24 3.82-11.94 5.551-0.33 0.336-0.1 0.906 0.36 0.933 5.5 0.493 9.64-0.589 12.53-1.906-3.72 3.852-4.43 8.899-4.51 11.613 0 0 0 0.004-0.01 0.004-6.13 3.551-9.7 7.754-11.77 11.278 1.14-7.5-2.64-13.821-4.46-16.356-0.36-0.496-1.13-0.34-1.27 0.254-1.84 6.883-1.37 12.395-0.33 16.356-4.5-6.141-11.65-7.961-14.74-8.469-0.6-0.098-1.04 0.562-0.72 1.078 3.55 6.133 7.76 9.699 11.28 11.769-7.5-1.14-13.82 2.641-16.36 4.465-0.49 0.356-0.34 1.129 0.26 1.266 6.88 1.84 12.39 1.375 16.35 0.332-6.14 4.496-7.96 11.652-8.46 14.742-0.1 0.602 0.56 1.035 1.07 0.715 6.14-3.551 9.7-7.754 11.77-11.277-1.14 7.5 2.64 13.82 4.47 16.359 0.35 0.492 1.13 0.336 1.26-0.258 1.84-6.879 1.37-12.394 0.34-16.355 4.49 6.14 11.65 7.961 14.74 8.469 0.6 0.097 1.03-0.563 0.71-1.079-3.55-6.132-7.75-9.699-11.27-11.769 7.5 1.14 13.82-2.641 16.35-4.465 0.5-0.355 0.34-1.129-0.25-1.266" fill="#ecb147"/></g>
  <g id="change4_1"><path d="m237.85 15.332c-1.8 1.48-2.06 4.148-0.58 5.953 0.71 0.871 1.72 1.414 2.85 1.524 0.14 0.015 0.28 0.023 0.42 0.023 0.98 0 1.91-0.336 2.67-0.961 0.88-0.715 1.42-1.73 1.53-2.851 0.11-1.125-0.22-2.227-0.94-3.098-1.48-1.805-4.14-2.067-5.95-0.59zm25.96 31.145v-0.004c-1.15-2.028-3.73-2.743-5.76-1.59-0.98 0.555-1.69 1.461-1.99 2.551-0.3 1.086-0.16 2.226 0.4 3.211 0.56 0.984 1.46 1.687 2.55 1.988 0.37 0.105 0.76 0.156 1.13 0.156 0.72 0 1.43-0.187 2.08-0.551 0.98-0.558 1.69-1.465 1.99-2.55 0.3-1.09 0.16-2.231-0.4-3.211zm-43.08 3.484c1.4 2.465 0.53 5.605-1.93 7.004-0.8 0.453-1.67 0.668-2.53 0.668-1.79 0-3.53-0.938-4.48-2.606-1.39-2.465-0.52-5.605 1.94-7 2.47-1.398 5.61-0.527 7 1.934" fill="#7c484e"/></g>
 </g>
</svg>